<?xml version="1.0" encoding="UTF-8"?>
<svg width="111px" height="33px" viewBox="0 0 111 33" version="1.1" xmlns="http://www.w3.org/2000/svg" xmlns:xlink="http://www.w3.org/1999/xlink">
    <!-- Generator: Sketch 62 (91390) - https://sketch.com -->
    <title>Group 16</title>
    <desc>Created with Sketch.</desc>
    <defs>
        <polygon id="path-1" points="0 0.113053092 40.5998326 0.113053092 40.5998326 29.1721419 0 29.1721419"></polygon>
    </defs>
    <g id="Symbols" stroke="none" stroke-width="1" fill="none" fill-rule="evenodd">
        <g id="element/footer_v3-copy-2" transform="translate(-32.000000, -321.000000)">
            <g id="Group-16" transform="translate(32.000000, 321.000000)">
                <path d="M51.757433,9.33362681 L54.678002,9.33362681 L54.678002,16.5455637 C54.9164842,15.7904428 55.472797,14.7574573 56.3268114,13.5851748 L59.3865315,9.33362681 L62.8435762,9.33362681 L58.353546,15.3334612 C59.3070375,16.2870986 61.6911307,19.6448121 63.4594001,23.2007503 L60.0621583,23.2007503 C59.1481951,21.3534244 57.6380992,18.8303259 56.4462714,17.4393982 L56.1679691,17.7967569 C55.5323081,18.5916978 54.678002,19.7839632 54.678002,22.0089225 L54.678002,23.2007503 L51.757433,23.2007503 L51.757433,9.33362681 Z" id="Fill-1" fill="#FEFEFE"></path>
                <path d="M65.5740304,9.33362681 L68.2161512,9.33362681 C70.0242406,11.4992208 73.1434719,16.425958 74.0771263,18.174682 L74.0771263,9.33362681 L76.799033,9.33362681 L76.799033,23.2007503 L74.0969633,23.2007503 C72.7858214,20.6181406 69.7462301,15.6514376 68.2957912,13.7441629 L68.2957912,23.2007503 L65.5740304,23.2007503 L65.5740304,9.33362681 Z" id="Fill-3" fill="#FEFEFE"></path>
                <polygon id="Fill-5" fill="#FEFEFE" points="80.7384099 9.33362681 83.6586871 9.33362681 83.6586871 20.7772746 88.6058448 20.7772746 88.6058448 23.2007503 80.7384099 23.2007503"></polygon>
                <polygon id="Fill-7" fill="#FEFEFE" points="91.9100129 11.7773625 88.2346147 11.7773625 88.2346147 9.33361222 98.5061259 9.33361222 98.5061259 11.7773625 94.8302901 11.7773625 94.8302901 23.2007357 91.9100129 23.2007357"></polygon>
                <path d="M103.494402,17.2011347 L103.494402,20.936044 C103.9314,20.9760099 104.58719,20.9958469 105.421513,20.9958469 C107.328642,20.9958469 107.865118,20.1613778 107.865118,19.0687352 C107.865118,17.9959297 107.189637,17.2011347 105.222851,17.2011347 L103.494402,17.2011347 Z M103.494402,11.6381531 L103.494402,14.9758837 L104.666393,14.9758837 C106.51401,14.9758837 107.209766,14.2408916 107.209766,13.1877773 C107.209766,12.1348088 106.672998,11.5389678 104.825527,11.5389678 C104.308888,11.5389678 103.911563,11.5784961 103.494402,11.6381531 L103.494402,11.6381531 Z M100.573687,23.1614409 L100.573687,9.45272208 C101.050797,9.33369974 103.613424,9.15502037 104.805544,9.15502037 C108.560436,9.15502037 110.209245,10.3863765 110.209245,12.9694238 C110.209245,14.2807116 109.315557,15.3533712 108.163257,15.7311505 C109.633387,16.0685263 110.885164,17.3798141 110.885164,19.2277234 C110.885164,21.7705131 109.474399,23.3797943 104.72605,23.3797943 C102.739427,23.3797943 101.60711,23.2806091 100.573687,23.1614409 L100.573687,23.1614409 Z" id="Fill-9" fill="#FEFEFE"></path>
                <path d="M46.0111774,14.8997007 C45.9318292,12.6048741 45.1641643,9.89755348 44.0032589,7.68995164 C43.1253233,6.02086754 41.9069488,4.73452194 40.8224744,3.93287148 C43.4628449,7.49974928 44.2852076,11.0497072 44.0888791,14.7013301 C43.9711695,16.8960962 43.3378423,19.5459477 41.7908436,21.6269424 C40.22182,23.7376928 37.9309317,24.7037283 35.9004047,24.0919884 C34.0279908,23.5276534 33.6771958,21.2341396 33.469636,19.9368544 C33.2038778,18.2801685 33.0460565,17.2506836 32.5425453,14.3445548 C31.2861012,7.09644442 28.5560263,3.87073482 24.2967477,1.63673219 C18.7385795,-1.2778565 10.6317871,-0.268208673 5.66391721,4.41348252 C11.5721511,0.196649409 20.9142378,0.732541656 24.9674152,7.08740105 C26.5380434,9.55069671 27.4870131,12.1153656 27.8853587,14.0369346 C28.3618857,16.337158 28.6477727,18.9625049 28.9199488,20.5348833 C29.4800539,23.7693445 29.7901537,24.7617808 30.5958883,26.0583367 C31.0360959,26.765907 32.4939737,28.6243183 35.2309041,28.7641987 C38.5057687,28.9316468 41.9539159,27.2500187 44.1841261,23.3323459 C45.853502,20.400108 46.0937346,17.2794181 46.0111774,14.8997007" id="Fill-11" fill="#FEFEFE"></path>
                <g id="Group-15" transform="translate(0.000000, 3.821259)">
                    <mask id="mask-2" fill="white">
                        <use xlink:href="#path-1"></use>
                    </mask>
                    <g id="Clip-14"></g>
                    <path d="M28.8075777,24.1674422 C26.9873819,22.0870309 26.3877485,18.7697208 26.0188668,16.0807786 C25.1616434,9.82948029 24.4956434,4.04799934 18.5319824,1.22778252 C12.4510494,-1.3867707 4.9635816,0.671032194 1.85718607,6.63265112 C-2.14581524,14.0245802 0.639686728,24.4206564 7.17293377,29.1722148 C5.04147122,26.4675197 3.76343968,23.0339586 3.20989829,19.6673476 C2.45915322,15.6226301 3.08518739,11.2761268 4.99537924,8.55874179 C6.33846465,6.64840407 8.09987858,5.64240276 9.63827148,5.13728712 C12.2916237,4.26576938 15.0534962,4.76198752 16.3701808,5.32107162 C17.7106407,5.8894908 18.872713,6.90876544 19.684282,8.24718331 C22.395395,12.7253988 21.6501926,18.3891702 24.2498681,23.0060992 C27.3901033,28.5826459 35.6844725,29.8039376 40.5998326,25.2339757 C36.387667,27.7996656 31.6716986,27.4401189 28.8075777,24.1674422" id="Fill-13" fill="#FEFEFE" mask="url(#mask-2)"></path>
                </g>
            </g>
        </g>
    </g>
</svg>