<svg width="170" height="36" viewBox="0 0 170 36" fill="none" xmlns="http://www.w3.org/2000/svg">
<path fill-rule="evenodd" clip-rule="evenodd" d="M33.9898 10.8823C33.9313 9.20626 33.3658 7.2289 32.5106 5.61652C31.8639 4.39746 30.9664 3.45784 30.1675 2.87244C32.1125 5.4776 32.7183 8.0704 32.5737 10.7375C32.487 12.3404 32.0205 14.2759 30.8808 15.7958C29.725 17.3374 28.0373 18.043 26.5416 17.5961C25.1623 17.184 24.9038 15.5089 24.7509 14.5614C24.5552 13.3514 24.4389 12.5994 24.068 10.4769C23.1424 5.18304 21.1313 2.82706 17.9936 1.19539C13.8992 -0.933351 7.92721 -0.195929 4.26758 3.22347C8.61994 0.143593 15.5019 0.534995 18.4877 5.17643C19.6447 6.97556 20.3438 8.84873 20.6372 10.2522C20.9883 11.9322 21.1989 13.8496 21.3994 14.9981C21.812 17.3605 22.0404 18.0854 22.634 19.0323C22.9583 19.549 24.0322 20.9065 26.0484 21.0086C28.4609 21.1309 31.001 19.9027 32.6439 17.0412C33.8736 14.8997 34.0506 12.6204 33.9898 10.8823Z" fill="#FF5000"/>
<path fill-rule="evenodd" clip-rule="evenodd" d="M21.1945 20.3569C19.8552 18.8426 19.4142 16.4278 19.1428 14.4705C18.5121 9.92011 18.022 5.71181 13.6344 3.65884C9.16058 1.75567 3.65187 3.25357 1.36642 7.5931C-1.57868 12.9738 0.47057 20.5413 5.27724 23.9999C3.70918 22.0311 2.76879 19.5319 2.36164 17.0813C1.8093 14.137 2.26989 10.9731 3.67527 8.99524C4.66341 7.60457 5.95932 6.87229 7.09116 6.50472C9.04318 5.87022 11.0753 6.23143 12.044 6.63839C13.0302 7.05226 13.8851 7.79409 14.4823 8.76834C16.4769 12.0281 15.9285 16.1508 17.8413 19.5115C20.1516 23.5708 26.254 24.4598 29.8702 21.1332C26.7712 23.0009 23.3016 22.7392 21.1945 20.3569Z" fill="#193291"/>
<path d="M1 35.8994H2.65163V35.229C2.65163 33.9777 3.13476 33.3073 3.49429 32.8603L3.65159 32.6592C4.32572 33.4413 5.17963 34.8603 5.69646 35.8994H7.61774C6.61778 33.8994 5.26951 32.0112 4.7302 31.4749L7.26944 28.1006H5.31445L3.58418 30.4916C3.10105 31.1508 2.78645 31.7318 2.65163 32.1564V28.1006H1V35.8994Z" fill="#FF5000"/>
<path d="M8.5818 35.8994H10.1211V30.581C10.9413 31.6536 12.6603 34.4469 13.4019 35.8994H14.9299V28.1006H13.3906V33.0726C12.8625 32.0894 11.0986 29.3184 10.0761 28.1006H8.5818V35.8994Z" fill="#FF5000"/>
<path d="M16.6793 35.8994H21.1286V34.5363H18.3309V28.1006H16.6793V35.8994Z" fill="#FF5000"/>
<path d="M22.4807 35.8994H24.1323V29.4749H26.2109V28.1006H20.4021V29.4749H22.4807V35.8994Z" fill="#FF5000"/>
<path d="M29.517 36C32.2023 36 33 35.095 33 33.6648C33 32.6257 32.2922 31.8883 31.4607 31.6983C32.1124 31.486 32.618 30.8827 32.618 30.1453C32.618 28.6927 31.6854 28 29.5619 28C28.8878 28 27.4384 28.1006 27.1687 28.1676V35.8771C27.753 35.9441 28.3934 36 29.517 36ZM29.7979 32.5251C30.9102 32.5251 31.2922 32.9721 31.2922 33.5754C31.2922 34.1899 30.9888 34.6592 29.9102 34.6592C29.4383 34.6592 29.0676 34.648 28.8204 34.6257V32.5251H29.7979ZM29.5732 29.3408C30.6181 29.3408 30.9214 29.676 30.9214 30.2682C30.9214 30.8603 30.5282 31.2737 29.4833 31.2737H28.8204V29.3966C29.0563 29.3631 29.281 29.3408 29.5732 29.3408Z" fill="#FF5000"/>
<rect x="48" width="1" height="36.0001" fill="#CBCCCC"/>
<path d="M74.932 12.436H71.746C70.774 14.074 69.406 17.746 68.83 19.636C68.254 17.746 66.886 14.074 65.914 12.436H62.728L62.08 25H64.636L65.068 15.802C65.896 17.602 66.904 20.248 67.552 22.624H70.108C70.756 20.248 71.764 17.602 72.592 15.802L73.024 25H75.58L74.932 12.436ZM78.0661 25H86.2201V22.84H80.7121V19.636H85.4461V17.512H80.7121V14.596H86.2201V12.436H78.0661V25ZM88.4196 25H96.5736V22.84H91.0656V19.636H95.7996V17.512H91.0656V14.596H96.5736V12.436H88.4196V25ZM100.825 25H103.471V14.65H106.801V12.436H97.4951V14.65H100.825V25ZM115.794 15.298C115.794 14.74 116.172 14.308 116.82 14.308C117.468 14.308 117.846 14.74 117.846 15.298C117.846 16 117.306 16.522 116.55 16.882C116.172 16.468 115.794 15.928 115.794 15.298ZM124.218 22.84H123.768C123.174 22.84 122.688 22.786 121.95 22.264C122.544 21.364 122.958 20.104 122.958 18.322H120.438V18.574C120.438 19.348 120.312 20.23 120.006 20.86C119.232 20.194 118.17 18.952 117.792 18.394C118.944 17.854 120.222 16.954 120.222 15.244C120.222 13.516 118.98 12.202 116.82 12.202C114.66 12.202 113.4 13.516 113.4 15.244C113.4 16.414 113.994 17.242 114.552 17.854C113.472 18.484 111.942 19.384 111.942 21.436C111.942 23.884 113.76 25.234 116.532 25.234C117.864 25.234 119.466 24.838 120.42 23.992C121.284 24.892 122.418 25.054 123.138 25.054C123.462 25.054 123.912 25 124.218 24.91V22.84ZM118.674 22.48C118.098 22.93 117.414 23.092 116.622 23.092C115.362 23.092 114.66 22.408 114.66 21.436C114.66 20.446 115.128 19.906 115.884 19.438C116.406 20.158 118.026 21.976 118.674 22.48ZM132.779 14.506C133.193 14.434 133.571 14.398 134.021 14.398C135.803 14.398 136.505 15.19 136.505 16.36C136.505 17.89 135.929 18.574 134.453 18.736C133.409 18.862 133.121 18.952 132.779 19.114V14.506ZM130.133 25H132.779V22.876C132.779 20.986 132.941 20.914 134.525 20.77C137.423 20.5 139.241 19.312 139.241 16.36C139.241 13.408 137.261 12.274 134.111 12.274C133.049 12.274 131.321 12.346 130.133 12.544V25ZM141.189 25H148.317V22.804H143.835V12.436H141.189V25ZM152.931 12.436C152.031 14.452 149.547 21.796 148.827 25H151.581C151.797 24.064 152.067 23.074 152.373 22.03H156.513C156.819 23.074 157.089 24.064 157.305 25H160.059C159.339 21.796 156.855 14.452 155.955 12.436H152.931ZM154.443 14.974C154.875 16.198 155.541 18.268 155.973 19.888H152.913C153.345 18.268 154.011 16.198 154.443 14.974ZM163.187 25H165.833V23.308C165.833 21.58 166.067 20.626 166.571 19.636C167.147 18.538 168.983 14.812 169.703 12.436H166.859C166.355 14.254 165.653 16.108 165.131 17.206C164.879 17.746 164.627 18.304 164.519 18.664C164.411 18.304 164.141 17.746 163.889 17.206C163.367 16.108 162.665 14.254 162.161 12.436H159.317C160.037 14.812 161.873 18.538 162.449 19.636C162.989 20.68 163.187 21.58 163.187 23.308V25Z" fill="#193291"/>
</svg>
